<svg width="99" height="99" viewBox="0 0 99 99" fill="none" xmlns="http://www.w3.org/2000/svg">
    <path d="M78.634 25.098C77.934 25.098 77.234 24.698 76.834 23.998C76.334 22.998 76.734 21.798 77.634 21.298L95.034 12.198C96.034 11.698 97.234 12.098 97.734 12.998C98.234 13.998 97.834 15.198 96.934 15.698L79.534 24.798C79.234 24.998 78.934 25.098 78.634 25.098ZM60.034 52.498C59.734 52.498 59.534 52.398 59.234 52.298C58.234 51.898 57.734 50.698 58.234 49.698L64.734 35.198C65.234 34.198 66.334 33.698 67.334 34.198C68.334 34.598 68.834 35.798 68.334 36.798L61.834 51.298C61.534 51.998 60.834 52.498 60.034 52.498ZM33.134 71.298C32.334 71.298 31.634 70.898 31.334 70.098C30.934 69.098 31.334 67.898 32.334 67.498L46.834 60.998C47.834 60.598 49.034 60.998 49.434 61.998C49.834 62.998 49.434 64.198 48.434 64.598L33.934 71.098C33.734 71.198 33.434 71.298 33.134 71.298ZM13.63 98.198C13.33 98.198 13.03 98.098 12.73 97.998C11.73 97.498 11.33 96.298 11.73 95.298L18.83 80.698C19.33 79.698 20.53 79.298 21.53 79.698C22.534 80.198 22.934 81.398 22.534 82.398L15.63 96.998C15.13 97.798 14.43 98.198 13.63 98.198Z" fill="currentColor"/>
    <path d="M24.634 84.498C18.33 84.498 13.23 79.398 13.23 73.098C13.23 66.798 18.33 61.698 24.634 61.698C30.934 61.698 36.034 66.798 36.034 73.098C36.034 79.398 30.834 84.498 24.634 84.498ZM24.634 65.698C23.6613 65.6953 22.6976 65.8849 21.7984 66.2558C20.8992 66.6267 20.0821 67.1716 19.3941 67.8593C18.7061 68.5469 18.1608 69.3637 17.7894 70.2627C17.418 71.1617 17.2279 72.1253 17.23 73.098C17.23 77.198 20.53 80.498 24.634 80.498C28.734 80.498 32.034 77.198 32.034 73.098C32.034 68.998 28.634 65.698 24.634 65.698ZM56.234 70.398C49.934 70.398 44.834 65.298 44.834 58.998C44.834 52.698 49.934 47.598 56.234 47.598C62.534 47.598 67.634 52.698 67.634 58.998C67.634 65.298 62.534 70.398 56.234 70.398ZM56.234 51.698C52.134 51.698 48.834 54.998 48.834 59.098C48.834 63.198 52.134 66.498 56.234 66.498C60.334 66.498 63.634 63.198 63.634 59.098C63.634 54.998 60.334 51.698 56.234 51.698ZM70.334 38.798C64.034 38.798 58.934 33.698 58.934 27.398C58.934 21.098 64.034 15.998 70.334 15.998C76.634 15.998 81.734 21.098 81.734 27.398C81.734 33.598 76.634 38.798 70.334 38.798ZM70.334 19.998C66.234 19.998 62.934 23.298 62.934 27.398C62.934 31.498 66.234 34.798 70.334 34.798C74.434 34.798 77.734 31.498 77.734 27.398C77.734 23.298 74.434 19.998 70.334 19.998Z" fill="currentColor"/>
    <path d="M90.834 98.698H2.33C1.23 98.698 0.330002 97.798 0.330002 96.698C0.330002 95.598 1.23 94.698 2.33 94.698H90.834C92.734 94.698 94.334 93.098 94.334 91.198V2.698C94.334 1.598 95.234 0.697998 96.334 0.697998C97.434 0.697998 98.334 1.598 98.334 2.698V91.198C98.334 95.298 94.934 98.698 90.834 98.698Z" fill="currentColor"/>
</svg>
